{"title":"Filename: The Imaginarium of Doctor Parnassus.DVDSCR LiNE READNF","uid":5307563,"size":1501867352,"categoryP":"video","categoryS":"movies","magnet":"?xt=urn:btih:09b4a1c09ca0f5b30eaa5737aab80af277916fac&amp;dn=Filename%3A+The+Imaginarium+of+Doctor+Parnassus.DVDSCR+LiNE+READNF&amp;tr=udp%3A%2F%2Ftracker.openbittorrent.com%3A80&amp;tr=udp%3A%2F%2Fopen.demonii.com%3A1337&amp;tr=udp%3A%2F%2Ftracker.coppersurfer.tk%3A6969&amp;tr=udp%3A%2F%2Fexodus.desync.com%3A6969","seeders":1,"leechers":0,"uploader":"IwannaFan2","files":2,"time":1264450713,"description":"\nFilename:\nThe Imaginarium of Doctor Parnassus.DVDSCR LiNE READNFO RESYNCED XViD - IMAGiNE &lt;a href=&quot;\nhttp://www.imdb.com/title/tt1054606/&quot; rel=&quot;nofollow&quot; target=&quot;_NEW&quot;&gt;\nhttp://www.imdb.com/title/tt1054606/&lt;/a&gt;\n\nRipper ...........: IMAGiNE                                        IMDB Rating.......:7.4/10                            \nVideo Codec.......: XVID                                         Release Date......:23/01/10\nAudio Codec.......:MP3                                           Theatre Date......:08/01/10\nAudio Bitrate.....:96                                              Runtime.......:1h 57mn\nSubtitles.........:NIL                                                 Language..........:ENGLISH\nResolution...... 624 x 336                                      IMDb URL..........:http://www.imdb.com/title/tt1054606/\n\n\nDETAILS:\n\nVideo\nID                               : 0\nFormat                           : MPEG-4 Visual\nFormat profile                   : Advanced Simple@L5\nFormat settings, BVOP            : Yes\nFormat settings, QPel            : No\nFormat settings, GMC             : No warppoints\nFormat settings, Matrix          : Default (H.263)\nMuxing mode                      : Packed bitstream\nCodec ID                         : XVID\nCodec ID/Hint                    : XviD\nDuration                         : 1h 57mn\nBit rate                         : 1 540 Kbps\nWidth                            : 624 pixels\nHeight                           : 336 pixels\nDisplay aspect ratio             : 1.857\nFrame rate                       : 25.000 fps\nResolution                       : 24 bits\nColorimetry                      : 4:2:0\nScan type                        : Progressive\nBits/(Pixel*Frame)               : 0.294\nStream size                      : 1.26 GiB (94%)\nWriting library                  : XviD 1.2.1 (UTC 2008-12-04)\n\nAudio\nID                               : 1\nFormat                           : MPEG Audio\nCodec ID                         : 55\nCodec ID/Hint                    : MP3\nDuration                         : 1h 57mn\nBit rate                         : 96.0 Kbps\nChannel(s)                       : 2 channels\nSampling rate                    : 22.05 KHz\nStream size                      : 80.4 MiB (6%)\nAlignment                        : Split accross interleaves\nInterleave, duration             : 40 ms (1.00 video frame)\nInterleave, preload duration     : 500 ms","torrent":{"xt":"urn:btih:09b4a1c09ca0f5b30eaa5737aab80af277916fac","amp;dn":"Filename%3A+The+Imaginarium+of+Doctor+Parnassus.DVDSCR+LiNE+READNF","amp;tr":["udp%3A%2F%2Ftracker.openbittorrent.com%3A80","udp%3A%2F%2Fopen.demonii.com%3A1337","udp%3A%2F%2Ftracker.coppersurfer.tk%3A6969","udp%3A%2F%2Fexodus.desync.com%3A6969"],"infoHash":"09b4a1c09ca0f5b30eaa5737aab80af277916fac","infoHashBuffer":{"type":"Buffer","data":[9,180,161,192,156,160,245,179,14,170,87,55,170,184,10,242,119,145,111,172]},"announce":[],"urlList":[]}}